<svg version="1.1" id="Слой_1" xmlns="http://www.w3.org/2000/svg" xmlns:xlink="http://www.w3.org/1999/xlink" viewBox="0 0 590.333 208.544" xml:space="preserve">
<style type="text/css">
<![CDATA[
	.style{fill:none;stroke:#000000;stroke-width:5;stroke-linecap:round;stroke-linejoin:round;stroke-miterlimit:10;}
]]>
    <defs>
        <style>
            .st0 {
                stroke-dasharray: 5000;
                stroke-dashoffset: 5000;
                -webkit-animation: dash 5s linear 2.6s forwards;
                -o-animation: dash 5s linear 2.6s forwards;
                -moz-animation: dash 5s linear 2.6s forwards;
                animation: dash 5s linear 2.6s forwards;
            }
            
           .st1 {
                stroke-dasharray: 5000;
                stroke-dashoffset: 5000;
                -webkit-animation: dash 5s linear 4.9s forwards;
                -o-animation: dash 5s linear 4.9s forwards;
                -moz-animation: dash 5s linear 4.9s forwards;
                animation: dash 5s linear 4.9s forwards;
            }

            .st2 {
                stroke-dasharray: 5000;
                stroke-dashoffset: 5000;
                -webkit-animation: dash 5s linear 5s forwards;
                -o-animation: dash 5s linear 5s forwards;
                -moz-animation: dash 5s linear 5s forwards;
                animation: dash 5s linear 5s forwards;
            }
            @-webkit-keyframes dash {
                 
                from {
                    stroke-dashoffset: 5000;
                }
                to {
                    stroke-dashoffset: 0;
                }
            }
        </style>
    </defs>
</style>
<path class="style st2" d="M323.011,88.56c-1.595,1.91-2.398,3.515-0.858,4.884c1.763,1.568,5.343-0.834,7.428-2.213"/>
<path class="style st1" d="M194.698,88.56c-1.595,1.91-2.398,3.515-0.858,4.884c1.763,1.568,5.343-0.834,7.428-2.213"/>
<path class="style st0" d="M192.323,54.65c7-19.667-25.667-3.917-7.5,10.333c13.729,10.769,48.876-11.448,36.364-36.667
	c-10.667-21.5-58.305-19.24-77.527-4.5c-18.584,14.25-33.5,36.75-3,60.5c32.629,25.408-7.616,93.197-52,110.666
	c-41.5,16.334-86.333-4.832-80.847-39.367c6.581-41.422,35.847-48.267,73.554-50.072c38.72-1.854,66.455,23.439,102.789-0.894
	c-6.667,6-18.792,16.292-19.459,26.292c-2,18,16.62,11.765,31.25,5.125c0,0,45.049-23.851,30.75-31
	c-7.334-3.333-17.076,8.603-20.409,13.27c-16.667,28.666,15.484,31.17,33.284,12.105c0,0,15.627-19.923,19.627-26.589
	c6.667,3.333,14.667,2.667,20.667-0.667c-10.667,2.667-27.835,33.256-15.169,39.256c11.334,5.333,41.292-27.125,48.244-38.125
	c0,0-25.618,17.5-17.619,34.833c3.669,7.951,13.666,7.833,40.5-17.333c0,0,31.49-31.119,55-56
	c16.767-17.744,27.168-34.02,19.12-37.298c-6.903-2.812-22.035,12.667-24.702,16.667c-20.666,29.333-28.605,68.172-48.605,97.506
	c4.667-11.333,27.21-36.661,39.21-37.994c2.66,16.063-15.902,20.488-27.902,21.155c14.714,9.298,14.333,16.429,26.333,17.095
	c19.334,1.333,45.132-29.179,45.132-29.179c-22.462,36.015,8.54,36.923,24.632,11.901c7.373-11.465,8.264-21.183-6.656-21.353
	c-13.667-0.156-27.476,20.327-15.476,28.327c11.334,7.333,54.503-19.646,60.394-28.327c-7.333,5.333-25.979,32.167-13.979,37.5
	c16,7.334,34.618-26.833,39.285-37.5c6.666,4.667,12.918,7.333,17.584,0c-2.27,1.589-13.221,17.942-12.119,30.125
	c2.167,23.959,41.739-10.946,35.125-25.875c-2.188-4.938-11.279-4.674-18.813-1.375c-6.176,2.705-10.451,7.212-12.361,10.466
	c-5.581,9.505,5.725,32.745,29.313,3.639c-3.578,6.87-9.389,14.728-5.389,19.395c9.333,9.333,35.918-13.278,42.585-18.611"/>
</svg>
