<svg version="1.1" id="Слой_1" xmlns="http://www.w3.org/2000/svg" xmlns:xlink="http://www.w3.org/1999/xlink" viewBox="0 0 563.972 208.544" xml:space="preserve">
<style type="text/css">
<![CDATA[
	.style{fill:none;stroke:#000000;stroke-width:5;stroke-linecap:round;stroke-linejoin:round;stroke-miterlimit:10;}
]]>
    <defs>
        <style>
            .st0 {
                stroke-dasharray: 5000;
                stroke-dashoffset: 0;
                -webkit-animation: dash 5s linear forwards;
                -o-animation: dash 5s linear forwards;
                -moz-animation: dash 5s linear forwards;
                animation: dash 5s linear forwards;
            }
            .st1 {
                stroke-dasharray: 5000;
                stroke-dashoffset: 5000;
                -webkit-animation: dash 5s linear 2.5s forwards;
                -o-animation: dash 5s linear 2.5s forwards;
                -moz-animation: dash 5s linear 2.5s forwards;
                animation: dash 5s linear 2.5s forwards;
            }

            @-webkit-keyframes dash {
                from {
                    stroke-dashoffset: 5000;
                }
                to {
                    stroke-dashoffset: 0;
                }
            }
        </style>
    </defs>
</style>
<path class="style st1" d="M412.326,83.163c-1.595,1.91-2.398,3.515-0.858,4.884c1.763,1.568,5.343-0.834,7.428-2.213"/>
<path class="style st0" d="M33.969,77.251c11-13.875,13.267-0.297,8.5,6.875c-7.561,11.375-19.996,20.893-26.408,17.77
	C-11.864,88.293,80.306-1.24,101.469,12.126c23.389,15.595-94.179,151.926-66.333,182c30.073,33.414,110.505-97.038,131.333-134.75
	c11-19.916,24-48.649,14.667-48.606c-16.196,0.076-37.667,83.356-35.5,106.69c2.594,27.928,58.513-7.435,44.214-14.584
	c-7.334-3.334-17.077,8.604-20.41,13.27c-16.667,28.666,15.484,31.17,33.285,12.106c0,0,15.627-19.923,19.627-26.59
	c6.666,3.334,14.666,2.667,20.666-0.666c-10.666,2.666-27.834,33.256-15.168,39.256c11.334,5.332,44.3-27.125,51.251-38.125
	l-3.65,9.452c-22.462,36.015,8.539,36.923,24.632,11.902c7.373-11.466,8.264-21.184-6.656-21.354
	c-13.667-0.156-27.476,20.327-15.476,28.327c11.335,7.333,57.138-28.327,57.138-28.327c-5.025,11.76-14.098,27.297-19.432,38.631
	c10-14.666,36.605-46.086,44.23-36.711c5.082,6.249-17.652,33.174-10.543,36.711c11.375,5.66,39.459-24.381,48.125-32.381
	l4.828-6.25c0,0-25.619,17.5-17.619,34.834c3.668,7.949,13.666,7.832,40.5-17.333c0,0,31.49-31.12,55-56
	c16.766-17.744,27.168-34.02,19.119-37.298c-6.902-2.813-22.035,12.667-24.701,16.667c-20.666,29.334-28.605,68.172-48.605,97.506
	c4.666-11.333,27.209-36.661,39.209-37.994c2.66,16.063-15.902,20.489-27.902,21.155c7.357,4.648,4.695,17.095,16.922,17.095
	c12.787,0,44.051-38.631,44.051-38.631c-2.27,1.589-13.221,17.942-12.119,30.125c2.168,23.958,41.74-10.945,35.125-25.875
	c-2.188-4.938-11.279-4.674-18.813-1.375c-6.176,2.705-10.451,7.212-12.361,10.467c-5.58,9.504,5.725,32.744,29.313,3.639
	c-3.578,6.869-9.389,14.727-5.389,19.394c9.334,9.332,35.918-13.277,42.586-18.611"/>
</svg>
